<svg id="Layer_1" data-name="Layer 1" xmlns="http://www.w3.org/2000/svg" width="32" height="32" viewBox="0 0 32 32"><defs><style>.cls-1,.cls-3{fill:#fff;}.cls-1{fill-rule:evenodd;}.cls-2{fill:#c00000;}</style></defs><title>icon-warning-extreme</title><path class="cls-1" d="M31.56,28.76a1.46,1.46,0,0,1,.19.74,1.5,1.5,0,0,1-1.5,1.5H1.7A1.47,1.47,0,0,1,1,30.8a1.49,1.49,0,0,1-.56-2l14.27-25a1.67,1.67,0,0,1,.56-.56,1.5,1.5,0,0,1,2.05.56Z"/><path class="cls-2" d="M16.41,4.27a.5.5,0,0,0-.68-.19.58.58,0,0,0-.19.19l-14.27,25a.49.49,0,0,0,.18.68A.45.45,0,0,0,1.7,30H30.25a.5.5,0,0,0,.5-.5.54.54,0,0,0-.06-.25Z"/><circle class="cls-3" cx="15.97" cy="25.97" r="0.97"/><rect class="cls-3" x="15" y="13" width="2" height="10" rx="1"/></svg>